<?xml version="1.0"?>
<svg id="Laag_1" data-name="Laag 1" xmlns="http://www.w3.org/2000/svg" width="2000" height="670" viewBox="0 0 2000 670">
  <path d="M1997.5,314.715l-84.835-110.503,83.529-99.191h-78.308l-68.739,88.315V10.179h-66.127v304.535h66.127v-91.361l66.999,91.361h81.354ZM1650.852,99.366c-31.758,0-55.686,12.616-67.867,36.11V10.179h-66.564v304.535h66.564v-109.632c0-32.195,13.921-49.597,40.459-49.597,26.974,0,36.981,16.096,36.981,51.337v107.892h66.999v-129.645c0-56.992-25.668-85.704-76.571-85.704M1449.817,262.944c-16.533,0-29.149-4.783-29.149-35.672v-69.61h47.419v-52.64h-47.419v-62.212h-66.564v62.212h-33.064v52.64h33.064v83.532c0,70.042,43.07,77.003,74.394,77.003,19.142,0,34.806-1.74,44.376-3.48v-53.074c-6.089.869-15.662,1.303-23.057,1.303M1217.546,314.715h66.564V10.179h-66.564v304.535ZM1054.84,265.121c-29.583,0-50.465-22.188-50.465-55.252,0-32.629,20.448-54.817,50.465-54.817,29.149,0,49.597,22.622,49.597,54.817,0,32.629-20.448,55.252-49.597,55.252M1075.722,99.366c-31.323,0-57.426,15.662-68.739,35.672V10.179h-66.127v304.535h66.127v-29.583c10.878,19.579,36.11,35.241,66.999,35.241,57.863,0,98.322-44.811,98.322-110.503,0-66.13-39.156-110.503-96.582-110.503M778.584,265.121c-29.583,0-50.465-22.188-50.465-55.252,0-32.629,20.448-54.817,50.465-54.817,29.149,0,49.597,22.622,49.597,54.817,0,32.629-20.448,55.252-49.597,55.252M799.467,99.366c-31.323,0-57.426,15.662-68.739,35.672V10.179h-66.127v304.535h66.127v-29.583c10.878,19.579,36.11,35.241,66.999,35.241,57.863,0,98.322-44.811,98.322-110.503,0-66.13-39.156-110.503-96.582-110.503M344.058,186.81c.434-25.668,17.836-42.633,46.551-42.633,28.277,0,43.939,14.79,44.373,42.633h-90.924ZM500.675,198.991c0-59.166-44.373-99.625-109.632-99.625-68.304,0-113.115,41.764-113.115,110.503,0,70.042,43.942,110.503,115.289,110.503,55.686,0,97.888-27.409,104.414-68.739h-65.258c-5.658,13.05-18.708,18.708-39.156,18.708-29.583,0-47.857-14.793-49.16-42.202h154.877c1.306-11.747,1.74-18.271,1.74-29.149M120.401,265.121c-30.889,0-50.031-23.494-50.031-55.252s19.142-54.817,50.031-54.817c33.064,0,50.031,24.797,50.031,54.817,0,30.452-16.968,55.252-50.031,55.252M167.821,10.179v124.859c-11.313-21.317-35.238-35.672-65.693-35.672-60.907,0-99.628,47.854-99.628,110.503,0,63.081,36.11,110.503,98.756,110.503,29.149,0,55.252-14.359,66.564-35.241v29.583h66.127V10.179h-66.127Z" fill="#1d1d1b"></path>
  <path d="M298.431,542.835c0,64.61,52.37,116.985,116.985,116.985s116.982-52.375,116.982-116.985-52.378-116.985-116.982-116.985-116.985,52.375-116.985,116.985" fill="#53e09a"></path>
  <path d="M594.371,542.835c0,64.61,52.378,116.985,116.985,116.985s116.982-52.375,116.982-116.985-52.378-116.985-116.982-116.985-116.985,52.375-116.985,116.985" fill="#7ddaff"></path>
  <path d="M2.501,542.835c0,64.61,52.37,116.985,116.985,116.985s116.982-52.375,116.982-116.985-52.378-116.985-116.982-116.985S2.501,478.226,2.501,542.835" fill="#a790e6"></path>
</svg>